REM Mixed-mode CD: a data track followed by two audio tracks
FILE "mixed.bin" BINARY
  TRACK 01 MODE1/2352
    INDEX 01 00:00:00
  TRACK 02 AUDIO
    INDEX 01 00:02:00
  TRACK 03 AUDIO
    INDEX 01 00:04:00
